# xmcd
#
# Track frame offsets:
#	150
#	8413
#	16515
#	36065
#	58837
#	76642
#	122994
#	139808
#	154940
#	175782
#	192502
#	208836
#	228724
#	247028
#
# Disc length: 3531 seconds
#
# Revision: 1
# Processed by: cddbd v1.5.2PL0 Copyright (c) Steve Scherf et al.
# Submitted via: audiograbber 1.83.01
#
DISCID=b50dc90e
DTITLE=Charlie Daniels - Memories, Memiors and Miles Songs Of A Lifetime
DYEAR=2018
DGENRE=Southern Rock
TTITLE0=Keep On The Sunny Side
TTITLE1=Jaguar
TTITLE2=A Hard Rain's A-Gonna Fall
TTITLE3=Uneasy Rider
TTITLE4=The South's Gonna Do It Again
TTITLE5=Saddle Trump
TTITLE6=The Devil Went Down To Georgia
TTITLE7=In America
TTITLE8=The Legend Of Woolly Swamp
TTITLE9=Drinkin' My Baby Goodbye
TTITLE10=Simple Man
TTITLE11=Let 'Em Win Or Bring 'Em Home
TTITLE12=Long Haired Country boy
TTITLE13=Still In Saigon
EXTD=
EXTT0=
EXTT1=
EXTT2=
EXTT3=
EXTT4=
EXTT5=
EXTT6=
EXTT7=
EXTT8=
EXTT9=
EXTT10=
EXTT11=
EXTT12=
EXTT13=
PLAYORDER=
